<?xml version="1.0" standalone="no"?>
<!DOCTYPE svg PUBLIC "-//W3C//DTD SVG 20010904//EN"
 "http://www.w3.org/TR/2001/REC-SVG-20010904/DTD/svg10.dtd">
<svg version="1.0" xmlns="http://www.w3.org/2000/svg"
 width="503.000000pt" height="249.000000pt" viewBox="0 0 503.000000 249.000000"
 preserveAspectRatio="xMidYMid meet">

<g transform="translate(0.000000,249.000000) scale(0.100000,-0.100000)"
fill="#000000" stroke="none">
<path d="M4548 2265 c-3 -3 0 -22 7 -43 18 -52 28 -297 20 -452 -7 -121 -10
-134 -36 -173 l-29 -42 0 -215 c0 -213 0 -216 25 -252 14 -20 25 -51 25 -67 0
-29 -2 -31 -39 -31 -21 0 -43 6 -49 13 -6 7 -12 147 -16 347 -3 184 -8 349
-12 365 -5 25 0 36 26 63 30 32 31 36 24 90 -14 121 -17 125 -149 185 -32 14
-51 29 -53 42 -8 54 -13 64 -44 75 -53 19 -250 25 -331 9 -83 -15 -109 -35
-101 -77 5 -26 3 -30 -26 -36 -18 -3 -45 -6 -60 -6 -15 0 -33 -7 -41 -16 -10
-13 -10 -20 5 -44 16 -27 16 -35 2 -102 -24 -117 -24 -148 2 -168 12 -10 51
-28 86 -40 35 -11 67 -28 70 -36 8 -22 6 -105 -3 -129 -5 -12 -48 -40 -107
-70 -91 -46 -101 -54 -124 -100 -23 -45 -25 -63 -28 -197 -4 -134 -6 -149 -23
-158 -10 -6 -19 -20 -19 -32 0 -24 37 -88 51 -88 22 0 6 -29 -21 -40 -39 -16
-54 -42 -37 -63 7 -9 66 -37 132 -63 175 -67 225 -68 510 -10 192 40 223 48
242 70 21 25 22 25 108 14 104 -13 155 -2 173 37 7 15 12 73 12 133 0 90 3
112 20 137 18 28 20 47 20 240 l0 210 -27 50 -28 50 -2 310 -2 310 -73 3 c-41
1 -76 0 -80 -3z"/>
<path d="M220 1405 c0 -6 94 -49 165 -75 166 -61 396 -106 659 -127 168 -13
231 -14 385 -4 101 6 190 16 197 22 15 12 49 108 41 115 -3 3 -47 -1 -98 -10
-52 -8 -132 -20 -179 -26 -103 -14 -618 -14 -675 0 -22 5 -58 10 -79 10 -22 0
-53 4 -70 9 -17 5 -60 15 -96 21 -36 6 -104 25 -152 41 -91 30 -98 32 -98 24z"/>
<path d="M240 1276 c0 -7 93 -57 145 -78 28 -11 64 -26 80 -33 26 -11 72 -26
200 -65 28 -8 126 -28 240 -50 113 -21 310 -39 460 -42 l160 -3 32 55 c20 32
29 58 24 63 -6 6 -42 5 -92 -2 -304 -41 -820 21 -1163 139 -57 19 -86 25 -86
16z"/>
<path d="M250 1190 c202 -155 643 -302 1038 -345 60 -7 64 -6 107 26 40 31 61
57 52 65 -1 2 -66 8 -142 14 -382 29 -703 101 -979 221 -101 44 -111 47 -76
19z"/>
<path d="M400 1026 c0 -15 46 -82 88 -128 54 -58 160 -122 252 -153 76 -25
100 -28 220 -28 119 0 146 3 225 27 50 15 93 31 97 35 5 4 -43 15 -105 24
-130 20 -429 93 -470 114 -16 8 -31 12 -34 9 -3 -3 -18 1 -32 8 -76 39 -241
102 -241 92z"/>
</g>
</svg>
